<svg width="309" height="251" viewBox="0 0 309 251" fill="none" xmlns="http://www.w3.org/2000/svg">
<rect width="309" height="251" fill="none"/>
<path d="M122.981 58L179.481 26V55L122.962 88.1353L122.981 58Z" fill="#F79AD3"/>
<path d="M97 43L153 10.5L179.481 26L122.981 58L97 43Z" fill="#FE1990"/>
<path d="M97 43L122.981 58L122.962 88.1353L97 73V43Z" fill="#AF125A"/>
<path d="M212 75L237.981 60V90L212 105V75Z" fill="#F79AD3"/>
<path d="M153 40.5L179.481 26L237.962 60L211.981 75L153 40.5Z" fill="#FE1990"/>
<path d="M153 40.5L211.981 75V105L153 70.5V40.5Z" fill="#AF125A"/>
<path d="M97 73L122.981 58L122.962 149.5L96.9615 164L97 73Z" fill="#F79AD3"/>
<path d="M71 58.5L96.9808 43L122.962 58L96.9808 73.5L71 58.5Z" fill="#FE1990"/>
<path d="M71 58.5L96.9808 73.5L96.9615 164L71 149V58.5Z" fill="#AF125A"/>
<path d="M156.962 169L183 154L182.5 184L156.962 199V169Z" fill="#F79AD3"/>
<path d="M96.9679 134L122.968 119L183 154L156.962 169L96.9679 134Z" fill="#FE1990"/>
<path d="M96.9679 134L156.962 169V199L96.9615 164L96.9679 134Z" fill="#AF125A"/>
</svg>
