<svg width="374" height="308" viewBox="0 0 374 308" fill="none" xmlns="http://www.w3.org/2000/svg">
<rect width="374" height="308" fill="none"/>
<path d="M244 106.133L269.981 91.1326L269.981 121.133L244 136.133L244 106.133Z" fill="#F79AD3"/>
<rect width="28.8675" height="28.8095" transform="matrix(0.866025 -0.5 2.20305e-08 1 189 201.133)" fill="#F79AD3"/>
<rect width="70" height="30" transform="matrix(0.866025 0.5 -2.20305e-08 1 184 71.1326)" fill="#AF125A"/>
<rect width="30.0222" height="64.5421" transform="matrix(0.866025 0.5 -2.20305e-08 1 103 87.1326)" fill="#AF125A"/>
<rect width="33.4863" height="31" transform="matrix(0.866025 -0.5 2.20305e-08 1 155 86.8646)" fill="#F79AD3"/>
<rect width="68.5773" height="30" transform="matrix(0.866025 -0.5 0.866025 0.5 103.213 87.4213)" fill="#FE1990"/>
<rect width="30.0222" height="65.1423" transform="matrix(0.866025 -0.5 2.20305e-08 1 129 102.511)" fill="#F79AD3"/>
<rect width="100.265" height="30" transform="matrix(0.866025 0.5 -0.866025 0.5 183.751 41)" fill="#FE1990"/>
<rect width="68.4971" height="30" transform="matrix(0.866025 0.5 -0.866025 0.5 154.981 152.133)" fill="#FE1990"/>
<rect width="100" height="29.8645" transform="matrix(0.866025 0.5 -2.20305e-08 1 103 150.133)" fill="#AF125A"/>
<path d="M111.5 263H106.114V245.545H111.739C113.432 245.545 114.881 245.895 116.085 246.594C117.29 247.287 118.213 248.284 118.855 249.585C119.497 250.881 119.818 252.432 119.818 254.239C119.818 256.057 119.494 257.622 118.847 258.935C118.199 260.241 117.256 261.247 116.017 261.952C114.778 262.651 113.273 263 111.5 263ZM108.227 261.125H111.364C112.807 261.125 114.003 260.847 114.952 260.29C115.901 259.733 116.608 258.94 117.074 257.912C117.54 256.884 117.773 255.659 117.773 254.239C117.773 252.83 117.543 251.616 117.082 250.599C116.622 249.577 115.935 248.793 115.02 248.247C114.105 247.696 112.966 247.42 111.602 247.42H108.227V261.125ZM139.618 245.545H141.732V257.102C141.732 258.295 141.451 259.361 140.888 260.298C140.331 261.23 139.544 261.966 138.527 262.506C137.51 263.04 136.317 263.307 134.948 263.307C133.578 263.307 132.385 263.04 131.368 262.506C130.351 261.966 129.561 261.23 128.999 260.298C128.442 259.361 128.164 258.295 128.164 257.102V245.545H130.277V256.932C130.277 257.784 130.465 258.543 130.84 259.207C131.215 259.866 131.749 260.386 132.442 260.767C133.141 261.142 133.976 261.33 134.948 261.33C135.919 261.33 136.755 261.142 137.453 260.767C138.152 260.386 138.686 259.866 139.056 259.207C139.431 258.543 139.618 257.784 139.618 256.932V245.545ZM151.469 263H149.253L155.662 245.545H157.844L164.253 263H162.037L156.821 248.307H156.685L151.469 263ZM152.287 256.182H161.219V258.057H152.287V256.182ZM171.771 263V245.545H173.885V261.125H181.999V263H171.771ZM192.185 245.545V263H190.071V245.545H192.185ZM210.768 249.909C210.666 249.045 210.251 248.375 209.524 247.898C208.797 247.42 207.905 247.182 206.848 247.182C206.075 247.182 205.399 247.307 204.82 247.557C204.246 247.807 203.797 248.151 203.473 248.588C203.155 249.026 202.996 249.523 202.996 250.08C202.996 250.545 203.107 250.946 203.328 251.281C203.555 251.611 203.845 251.886 204.197 252.108C204.55 252.324 204.919 252.503 205.305 252.645C205.692 252.781 206.047 252.892 206.371 252.977L208.143 253.455C208.598 253.574 209.104 253.739 209.661 253.949C210.223 254.159 210.76 254.446 211.271 254.81C211.788 255.168 212.214 255.628 212.55 256.19C212.885 256.753 213.053 257.443 213.053 258.261C213.053 259.205 212.805 260.057 212.311 260.818C211.822 261.58 211.107 262.185 210.163 262.634C209.226 263.082 208.087 263.307 206.746 263.307C205.496 263.307 204.413 263.105 203.499 262.702C202.589 262.298 201.874 261.736 201.351 261.014C200.834 260.293 200.541 259.455 200.473 258.5H202.655C202.712 259.159 202.933 259.705 203.32 260.136C203.712 260.562 204.206 260.881 204.803 261.091C205.405 261.295 206.053 261.398 206.746 261.398C207.553 261.398 208.277 261.267 208.919 261.006C209.561 260.739 210.07 260.369 210.445 259.898C210.82 259.42 211.007 258.864 211.007 258.227C211.007 257.648 210.845 257.176 210.521 256.812C210.197 256.449 209.771 256.153 209.243 255.926C208.714 255.699 208.143 255.5 207.53 255.33L205.382 254.716C204.018 254.324 202.939 253.764 202.143 253.037C201.348 252.31 200.95 251.358 200.95 250.182C200.95 249.205 201.214 248.352 201.743 247.625C202.277 246.892 202.993 246.324 203.891 245.92C204.794 245.511 205.803 245.307 206.916 245.307C208.041 245.307 209.041 245.509 209.916 245.912C210.791 246.31 211.484 246.855 211.996 247.548C212.513 248.241 212.786 249.028 212.814 249.909H210.768ZM220.373 247.42V245.545H233.464V247.42H227.975V263H225.862V247.42H220.373ZM243.64 245.545V263H241.526V245.545H243.64ZM266.723 251H264.61C264.485 250.392 264.266 249.858 263.953 249.398C263.646 248.938 263.271 248.551 262.828 248.239C262.391 247.92 261.905 247.682 261.371 247.523C260.837 247.364 260.28 247.284 259.7 247.284C258.644 247.284 257.686 247.551 256.828 248.085C255.976 248.619 255.297 249.406 254.791 250.446C254.291 251.486 254.041 252.761 254.041 254.273C254.041 255.784 254.291 257.06 254.791 258.099C255.297 259.139 255.976 259.926 256.828 260.46C257.686 260.994 258.644 261.261 259.7 261.261C260.28 261.261 260.837 261.182 261.371 261.023C261.905 260.864 262.391 260.628 262.828 260.315C263.271 259.997 263.646 259.608 263.953 259.148C264.266 258.682 264.485 258.148 264.61 257.545H266.723C266.564 258.437 266.274 259.236 265.854 259.94C265.433 260.645 264.911 261.244 264.286 261.739C263.661 262.227 262.959 262.599 262.181 262.855C261.408 263.111 260.581 263.239 259.7 263.239C258.212 263.239 256.888 262.875 255.729 262.148C254.57 261.42 253.658 260.386 252.993 259.045C252.328 257.705 251.996 256.114 251.996 254.273C251.996 252.432 252.328 250.841 252.993 249.5C253.658 248.159 254.57 247.125 255.729 246.398C256.888 245.67 258.212 245.307 259.7 245.307C260.581 245.307 261.408 245.435 262.181 245.69C262.959 245.946 263.661 246.321 264.286 246.815C264.911 247.304 265.433 247.901 265.854 248.605C266.274 249.304 266.564 250.102 266.723 251Z" fill="#FE1990" fill-opacity="0.6"/>
</svg>
