<svg width="217" height="270" viewBox="0 0 217 270" fill="none" xmlns="http://www.w3.org/2000/svg">
<path d="M163 86.1326L188.981 71.1326L188.981 101.133L163 116.133L163 86.1326Z" fill="#F79AD3"/>
<rect width="28.8675" height="28.8095" transform="matrix(0.866025 -0.5 2.20305e-08 1 108 181.133)" fill="#F79AD3"/>
<rect width="70" height="30" transform="matrix(0.866025 0.5 -2.20305e-08 1 103 51.1326)" fill="#AF125A"/>
<rect width="30.0222" height="64.5421" transform="matrix(0.866025 0.5 -2.20305e-08 1 22 67.1326)" fill="#AF125A"/>
<rect width="33.4863" height="31" transform="matrix(0.866025 -0.5 2.20305e-08 1 74 66.8646)" fill="#F79AD3"/>
<rect width="68.5773" height="30" transform="matrix(0.866025 -0.5 0.866025 0.5 22.2129 67.4213)" fill="#FE1990"/>
<rect width="30.0222" height="65.1423" transform="matrix(0.866025 -0.5 2.20305e-08 1 48 82.5106)" fill="#F79AD3"/>
<rect width="100.265" height="30" transform="matrix(0.866025 0.5 -0.866025 0.5 102.751 21)" fill="#FE1990"/>
<rect width="68.4971" height="30" transform="matrix(0.866025 0.5 -0.866025 0.5 73.9808 132.133)" fill="#FE1990"/>
<rect width="100" height="29.8645" transform="matrix(0.866025 0.5 -2.20305e-08 1 22 130.133)" fill="#AF125A"/>
<path d="M30.5 243H25.1136V225.545H30.7386C32.4318 225.545 33.8807 225.895 35.0852 226.594C36.2898 227.287 37.2131 228.284 37.8551 229.585C38.4972 230.881 38.8182 232.432 38.8182 234.239C38.8182 236.057 38.4943 237.622 37.8466 238.935C37.1989 240.241 36.2557 241.247 35.017 241.952C33.7784 242.651 32.2727 243 30.5 243ZM27.2273 241.125H30.3636C31.8068 241.125 33.0028 240.847 33.9517 240.29C34.9006 239.733 35.608 238.94 36.0739 237.912C36.5398 236.884 36.7727 235.659 36.7727 234.239C36.7727 232.83 36.5426 231.616 36.0824 230.599C35.6222 229.577 34.9347 228.793 34.0199 228.247C33.1051 227.696 31.9659 227.42 30.6023 227.42H27.2273V241.125ZM58.6182 225.545H60.7318V237.102C60.7318 238.295 60.4506 239.361 59.8881 240.298C59.3313 241.23 58.5443 241.966 57.5273 242.506C56.5102 243.04 55.317 243.307 53.9477 243.307C52.5784 243.307 51.3852 243.04 50.3682 242.506C49.3511 241.966 48.5614 241.23 47.9989 240.298C47.442 239.361 47.1636 238.295 47.1636 237.102V225.545H49.2773V236.932C49.2773 237.784 49.4648 238.543 49.8398 239.207C50.2148 239.866 50.7489 240.386 51.442 240.767C52.1409 241.142 52.9761 241.33 53.9477 241.33C54.9193 241.33 55.7545 241.142 56.4534 240.767C57.1523 240.386 57.6864 239.866 58.0557 239.207C58.4307 238.543 58.6182 237.784 58.6182 236.932V225.545ZM70.4686 243H68.2527L74.6618 225.545H76.8436L83.2527 243H81.0368L75.8209 228.307H75.6845L70.4686 243ZM71.2868 236.182H80.2186V238.057H71.2868V236.182ZM90.7715 243V225.545H92.8851V241.125H100.999V243H90.7715ZM111.185 225.545V243H109.071V225.545H111.185ZM129.768 229.909C129.666 229.045 129.251 228.375 128.524 227.898C127.797 227.42 126.905 227.182 125.848 227.182C125.075 227.182 124.399 227.307 123.82 227.557C123.246 227.807 122.797 228.151 122.473 228.588C122.155 229.026 121.996 229.523 121.996 230.08C121.996 230.545 122.107 230.946 122.328 231.281C122.555 231.611 122.845 231.886 123.197 232.108C123.55 232.324 123.919 232.503 124.305 232.645C124.692 232.781 125.047 232.892 125.371 232.977L127.143 233.455C127.598 233.574 128.104 233.739 128.661 233.949C129.223 234.159 129.76 234.446 130.271 234.81C130.788 235.168 131.214 235.628 131.55 236.19C131.885 236.753 132.053 237.443 132.053 238.261C132.053 239.205 131.805 240.057 131.311 240.818C130.822 241.58 130.107 242.185 129.163 242.634C128.226 243.082 127.087 243.307 125.746 243.307C124.496 243.307 123.413 243.105 122.499 242.702C121.589 242.298 120.874 241.736 120.351 241.014C119.834 240.293 119.541 239.455 119.473 238.5H121.655C121.712 239.159 121.933 239.705 122.32 240.136C122.712 240.562 123.206 240.881 123.803 241.091C124.405 241.295 125.053 241.398 125.746 241.398C126.553 241.398 127.277 241.267 127.919 241.006C128.561 240.739 129.07 240.369 129.445 239.898C129.82 239.42 130.007 238.864 130.007 238.227C130.007 237.648 129.845 237.176 129.521 236.812C129.197 236.449 128.771 236.153 128.243 235.926C127.714 235.699 127.143 235.5 126.53 235.33L124.382 234.716C123.018 234.324 121.939 233.764 121.143 233.037C120.348 232.31 119.95 231.358 119.95 230.182C119.95 229.205 120.214 228.352 120.743 227.625C121.277 226.892 121.993 226.324 122.891 225.92C123.794 225.511 124.803 225.307 125.916 225.307C127.041 225.307 128.041 225.509 128.916 225.912C129.791 226.31 130.484 226.855 130.996 227.548C131.513 228.241 131.786 229.028 131.814 229.909H129.768ZM139.373 227.42V225.545H152.464V227.42H146.975V243H144.862V227.42H139.373ZM162.64 225.545V243H160.526V225.545H162.64ZM185.723 231H183.61C183.485 230.392 183.266 229.858 182.953 229.398C182.646 228.938 182.271 228.551 181.828 228.239C181.391 227.92 180.905 227.682 180.371 227.523C179.837 227.364 179.28 227.284 178.7 227.284C177.644 227.284 176.686 227.551 175.828 228.085C174.976 228.619 174.297 229.406 173.791 230.446C173.291 231.486 173.041 232.761 173.041 234.273C173.041 235.784 173.291 237.06 173.791 238.099C174.297 239.139 174.976 239.926 175.828 240.46C176.686 240.994 177.644 241.261 178.7 241.261C179.28 241.261 179.837 241.182 180.371 241.023C180.905 240.864 181.391 240.628 181.828 240.315C182.271 239.997 182.646 239.608 182.953 239.148C183.266 238.682 183.485 238.148 183.61 237.545H185.723C185.564 238.437 185.274 239.236 184.854 239.94C184.433 240.645 183.911 241.244 183.286 241.739C182.661 242.227 181.959 242.599 181.181 242.855C180.408 243.111 179.581 243.239 178.7 243.239C177.212 243.239 175.888 242.875 174.729 242.148C173.57 241.42 172.658 240.386 171.993 239.045C171.328 237.705 170.996 236.114 170.996 234.273C170.996 232.432 171.328 230.841 171.993 229.5C172.658 228.159 173.57 227.125 174.729 226.398C175.888 225.67 177.212 225.307 178.7 225.307C179.581 225.307 180.408 225.435 181.181 225.69C181.959 225.946 182.661 226.321 183.286 226.815C183.911 227.304 184.433 227.901 184.854 228.605C185.274 229.304 185.564 230.102 185.723 231Z" fill="#FE1990" fill-opacity="0.6"/>
</svg>
