<svg width="309" height="251" viewBox="0 0 309 251" fill="none" xmlns="http://www.w3.org/2000/svg">
<rect width="309" height="251" fill="none"/>
<path d="M123 58L179.481 26V55L122.962 88.1353L123 58Z" fill="#F79AD3"/>
<path d="M97 43L153 10.5L179.481 26L123 58L97 43Z" fill="#FE1990"/>
<path d="M97 43L123 58L122.962 88.1353L97 73V43Z" fill="#AF125A"/>
<path d="M212 75L237.981 60V90L212 105V75Z" fill="#F79AD3"/>
<path d="M153 40.5L179.481 26L237.962 60L211.981 75L153 40.5Z" fill="#FE1990"/>
<path d="M153 40.5L211.981 75V105L153 70.5V40.5Z" fill="#AF125A"/>
<path d="M97 73L123 58L122.962 149.5L96.9615 164L97 73Z" fill="#F79AD3"/>
<path d="M71.0192 58.5L97 43L123 58L97 73.5L71.0192 58.5Z" fill="#FE1990"/>
<path d="M71.0192 58.5L97 73.5L96.9615 164L71 149L71.0192 58.5Z" fill="#AF125A"/>
<path d="M156.962 169L183 154L182.5 184L156.962 199V169Z" fill="#F79AD3"/>
<path d="M96.9679 134L122.968 119L183 154L156.962 169L96.9679 134Z" fill="#FE1990"/>
<path d="M96.9679 134L156.962 169V199L96.9615 164L96.9679 134Z" fill="#AF125A"/>
<path d="M212 138L237.981 123V153L212 168V138Z" fill="#F79AD3"/>
<path d="M186 123L211.981 108L237.962 123L211.981 138L186 123Z" fill="#FE1990"/>
<path d="M186 123L211.981 138V168L186 153V123Z" fill="#AF125A"/>
<path d="M122.981 58L179.481 26V55L122.962 88.1353L122.981 58Z" fill="#F79AD3"/>
<path d="M97 43L153 10.5L179.481 26L122.981 58L97 43Z" fill="#FE1990"/>
<path d="M97 43L122.981 58L122.962 88.1353L97 73V43Z" fill="#AF125A"/>
<path d="M212 75L237.981 60V90L212 105V75Z" fill="#F79AD3"/>
<path d="M153 40.5L179.481 26L237.962 60L211.981 75L153 40.5Z" fill="#FE1990"/>
<path d="M153 40.5L211.981 75V105L153 70.5V40.5Z" fill="#AF125A"/>
<path d="M97 73L122.981 58L122.962 149.5L96.9615 164L97 73Z" fill="#F79AD3"/>
<path d="M71 58.5L96.9808 43L122.962 58L96.9808 73.5L71 58.5Z" fill="#FE1990"/>
<path d="M71 58.5L96.9808 73.5L96.9615 164L71 149V58.5Z" fill="#AF125A"/>
<path d="M156.962 169L183 154L182.5 184L156.962 199V169Z" fill="#F79AD3"/>
<path d="M96.9679 134L122.968 119L183 154L156.962 169L96.9679 134Z" fill="#FE1990"/>
<path d="M96.9679 134L156.962 169V199L96.9615 164L96.9679 134Z" fill="#AF125A"/>
<path d="M212 138L237.981 123V153L212 168V138Z" fill="#F79AD3"/>
<path d="M186 123L211.981 108L237.962 123L211.981 138L186 123Z" fill="#FE1990"/>
<path d="M186 123L211.981 138V168L186 153L186 123Z" fill="#AF125A"/>
<path d="M78.7045 228H72.517V210.545H78.7557C80.5114 210.545 82.0227 210.895 83.2898 211.594C84.5568 212.287 85.5313 213.284 86.2131 214.585C86.9006 215.886 87.2443 217.443 87.2443 219.256C87.2443 221.074 86.9006 222.636 86.2131 223.943C85.5313 225.25 84.5511 226.253 83.2727 226.952C82 227.651 80.4773 228 78.7045 228ZM76.2074 224.838H78.5511C79.642 224.838 80.5597 224.645 81.304 224.259C82.054 223.866 82.6165 223.261 82.9915 222.443C83.3722 221.619 83.5625 220.557 83.5625 219.256C83.5625 217.966 83.3722 216.912 82.9915 216.094C82.6165 215.276 82.0568 214.673 81.3125 214.287C80.5682 213.901 79.6506 213.707 78.5597 213.707H76.2074V224.838ZM105.559 210.545H109.25V221.881C109.25 223.153 108.946 224.267 108.338 225.222C107.735 226.176 106.892 226.92 105.806 227.455C104.721 227.983 103.457 228.247 102.014 228.247C100.565 228.247 99.2979 227.983 98.2126 227.455C97.1274 226.92 96.2837 226.176 95.6814 225.222C95.0791 224.267 94.778 223.153 94.778 221.881V210.545H98.4683V221.565C98.4683 222.23 98.6132 222.821 98.903 223.338C99.1984 223.855 99.6132 224.261 100.147 224.557C100.681 224.852 101.304 225 102.014 225C102.73 225 103.352 224.852 103.88 224.557C104.414 224.261 104.826 223.855 105.116 223.338C105.412 222.821 105.559 222.23 105.559 221.565V210.545ZM120.094 228H116.14L122.165 210.545H126.921L132.938 228H128.984L124.611 214.534H124.475L120.094 228ZM119.847 221.139H129.188V224.02H119.847V221.139ZM139.839 228V210.545H143.529V224.957H151.012V228H139.839ZM161.946 210.545V228H158.256V210.545H161.946ZM179.251 215.565C179.183 214.878 178.891 214.344 178.374 213.963C177.857 213.582 177.155 213.392 176.268 213.392C175.666 213.392 175.158 213.477 174.743 213.648C174.328 213.812 174.01 214.043 173.788 214.338C173.572 214.634 173.464 214.969 173.464 215.344C173.453 215.656 173.518 215.929 173.661 216.162C173.808 216.395 174.01 216.597 174.266 216.767C174.521 216.932 174.817 217.077 175.152 217.202C175.487 217.321 175.845 217.423 176.226 217.509L177.794 217.884C178.555 218.054 179.254 218.281 179.891 218.565C180.527 218.849 181.078 219.199 181.544 219.614C182.01 220.028 182.371 220.517 182.626 221.08C182.888 221.642 183.021 222.287 183.027 223.014C183.021 224.082 182.749 225.009 182.209 225.793C181.675 226.571 180.902 227.176 179.891 227.608C178.885 228.034 177.672 228.247 176.251 228.247C174.842 228.247 173.615 228.031 172.57 227.599C171.53 227.168 170.717 226.528 170.132 225.682C169.553 224.83 169.249 223.776 169.22 222.52H172.791C172.831 223.105 172.999 223.594 173.294 223.986C173.595 224.372 173.996 224.665 174.496 224.864C175.001 225.057 175.572 225.153 176.209 225.153C176.834 225.153 177.376 225.062 177.837 224.881C178.303 224.699 178.663 224.446 178.919 224.122C179.175 223.798 179.303 223.426 179.303 223.006C179.303 222.614 179.186 222.284 178.953 222.017C178.726 221.75 178.391 221.523 177.947 221.335C177.51 221.148 176.973 220.977 176.337 220.824L174.436 220.347C172.964 219.989 171.803 219.429 170.95 218.668C170.098 217.906 169.675 216.881 169.68 215.591C169.675 214.534 169.956 213.611 170.524 212.821C171.098 212.031 171.885 211.415 172.885 210.972C173.885 210.528 175.021 210.307 176.294 210.307C177.589 210.307 178.72 210.528 179.686 210.972C180.658 211.415 181.413 212.031 181.953 212.821C182.493 213.611 182.771 214.526 182.788 215.565H179.251ZM189.644 213.588V210.545H203.98V213.588H198.636V228H194.988V213.588H189.644ZM214.831 210.545V228H211.14V210.545H214.831ZM238.068 216.656H234.335C234.266 216.173 234.127 215.744 233.917 215.369C233.707 214.989 233.437 214.665 233.107 214.398C232.778 214.131 232.397 213.926 231.965 213.784C231.539 213.642 231.076 213.571 230.576 213.571C229.673 213.571 228.886 213.795 228.215 214.244C227.545 214.687 227.025 215.335 226.656 216.188C226.286 217.034 226.102 218.062 226.102 219.273C226.102 220.517 226.286 221.562 226.656 222.409C227.031 223.256 227.553 223.895 228.224 224.327C228.894 224.759 229.67 224.974 230.551 224.974C231.045 224.974 231.502 224.909 231.923 224.778C232.349 224.648 232.727 224.457 233.056 224.207C233.386 223.952 233.659 223.642 233.874 223.278C234.096 222.915 234.249 222.5 234.335 222.034L238.068 222.051C237.971 222.852 237.73 223.625 237.343 224.369C236.962 225.108 236.448 225.77 235.801 226.355C235.159 226.935 234.391 227.395 233.499 227.736C232.613 228.071 231.61 228.239 230.491 228.239C228.934 228.239 227.542 227.886 226.315 227.182C225.093 226.477 224.127 225.457 223.417 224.122C222.712 222.787 222.36 221.17 222.36 219.273C222.36 217.369 222.718 215.75 223.434 214.415C224.15 213.08 225.122 212.062 226.349 211.364C227.576 210.659 228.957 210.307 230.491 210.307C231.502 210.307 232.44 210.449 233.303 210.733C234.173 211.017 234.943 211.432 235.613 211.977C236.284 212.517 236.829 213.179 237.249 213.963C237.676 214.747 237.948 215.645 238.068 216.656Z" fill="#FE1990" fill-opacity="0.6"/>
</svg>
