<svg width="329" height="238" viewBox="0 0 329 238" fill="none" xmlns="http://www.w3.org/2000/svg">
<path d="M133 58L189.481 26V55L132.962 88.1353L133 58Z" fill="#F79AD3"/>
<path d="M107 43L163 10.5L189.481 26L133 58L107 43Z" fill="#FE1990"/>
<path d="M107 43L133 58L132.962 88.1353L107 73V43Z" fill="#AF125A"/>
<path d="M222 75L247.981 60V90L222 105V75Z" fill="#F79AD3"/>
<path d="M163 40.5L189.481 26L247.962 60L221.981 75L163 40.5Z" fill="#FE1990"/>
<path d="M163 40.5L221.981 75V105L163 70.5V40.5Z" fill="#AF125A"/>
<path d="M107 73L133 58L132.962 149.5L106.962 164L107 73Z" fill="#F79AD3"/>
<path d="M81.0192 58.5L107 43L133 58L107 73.5L81.0192 58.5Z" fill="#FE1990"/>
<path d="M81.0192 58.5L107 73.5L106.962 164L81 149L81.0192 58.5Z" fill="#AF125A"/>
<path d="M166.962 169L193 154L192.5 184L166.962 199V169Z" fill="#F79AD3"/>
<path d="M106.968 134L132.968 119L193 154L166.962 169L106.968 134Z" fill="#FE1990"/>
<path d="M106.968 134L166.962 169V199L106.962 164L106.968 134Z" fill="#AF125A"/>
<path d="M222 138L247.981 123V153L222 168V138Z" fill="#F79AD3"/>
<path d="M196 123L221.981 108L247.962 123L221.981 138L196 123Z" fill="#FE1990"/>
<path d="M196 123L221.981 138V168L196 153V123Z" fill="#AF125A"/>
<path d="M132.981 58L189.481 26V55L132.5 88.5L132.981 58Z" fill="#F79AD3"/>
<path d="M107 43L163 10.5L189.481 26L132.981 58L107 43Z" fill="#FE1990"/>
<path d="M107 43L132.981 58L132.5 88.5L107 73V43Z" fill="#AF125A"/>
<path d="M222 75L247.981 60V90L222 105V75Z" fill="#F79AD3"/>
<path d="M163 40.5L189.481 26L247.962 60L221.981 75L163 40.5Z" fill="#FE1990"/>
<path d="M163 40.5L221.981 75V105L163 70.5V40.5Z" fill="#AF125A"/>
<path d="M107 73L132.981 58L132.962 149.5L106.962 164L107 73Z" fill="#F79AD3"/>
<path d="M81 58.5L106.981 43L132.962 58L106.981 73.5L81 58.5Z" fill="#FE1990"/>
<path d="M81 58.5L106.981 73.5L106.962 164L81 149V58.5Z" fill="#AF125A"/>
<path d="M166.962 169L193 154L192.5 184L166.962 199V169Z" fill="#F79AD3"/>
<path d="M106.968 134L132.968 119L193 154L166.962 169L106.968 134Z" fill="#FE1990"/>
<path d="M106.968 134L166.962 169V199L106.962 164L106.968 134Z" fill="#AF125A"/>
<path d="M130 59.787L136.5 56V86.14L130 89.9504V59.787Z" fill="#F79AD3"/>
<path d="M105 132.89L109 135.214V165.16L105 162.805V132.89Z" fill="#AF125A"/>
<path d="M105.5 44L109 42L134.5 57L131 59L105.5 44Z" fill="#FE1990"/>
<path d="M105.5 44L109 42L134.5 57L131 59L105.5 44Z" fill="#FE1990"/>
<path d="M88.5 228H83.1136V210.545H88.7386C90.4318 210.545 91.8807 210.895 93.0852 211.594C94.2898 212.287 95.2131 213.284 95.8551 214.585C96.4972 215.881 96.8182 217.432 96.8182 219.239C96.8182 221.057 96.4943 222.622 95.8466 223.935C95.1989 225.241 94.2557 226.247 93.017 226.952C91.7784 227.651 90.2727 228 88.5 228ZM85.2273 226.125H88.3636C89.8068 226.125 91.0028 225.847 91.9517 225.29C92.9006 224.733 93.608 223.94 94.0739 222.912C94.5398 221.884 94.7727 220.659 94.7727 219.239C94.7727 217.83 94.5426 216.616 94.0824 215.599C93.6222 214.577 92.9347 213.793 92.0199 213.247C91.1051 212.696 89.9659 212.42 88.6023 212.42H85.2273V226.125ZM116.618 210.545H118.732V222.102C118.732 223.295 118.451 224.361 117.888 225.298C117.331 226.23 116.544 226.966 115.527 227.506C114.51 228.04 113.317 228.307 111.948 228.307C110.578 228.307 109.385 228.04 108.368 227.506C107.351 226.966 106.561 226.23 105.999 225.298C105.442 224.361 105.164 223.295 105.164 222.102V210.545H107.277V221.932C107.277 222.784 107.465 223.543 107.84 224.207C108.215 224.866 108.749 225.386 109.442 225.767C110.141 226.142 110.976 226.33 111.948 226.33C112.919 226.33 113.755 226.142 114.453 225.767C115.152 225.386 115.686 224.866 116.056 224.207C116.431 223.543 116.618 222.784 116.618 221.932V210.545ZM128.469 228H126.253L132.662 210.545H134.844L141.253 228H139.037L133.821 213.307H133.685L128.469 228ZM129.287 221.182H138.219V223.057H129.287V221.182ZM148.771 228V210.545H150.885V226.125H158.999V228H148.771ZM169.185 210.545V228H167.071V210.545H169.185ZM187.768 214.909C187.666 214.045 187.251 213.375 186.524 212.898C185.797 212.42 184.905 212.182 183.848 212.182C183.075 212.182 182.399 212.307 181.82 212.557C181.246 212.807 180.797 213.151 180.473 213.588C180.155 214.026 179.996 214.523 179.996 215.08C179.996 215.545 180.107 215.946 180.328 216.281C180.555 216.611 180.845 216.886 181.197 217.108C181.55 217.324 181.919 217.503 182.305 217.645C182.692 217.781 183.047 217.892 183.371 217.977L185.143 218.455C185.598 218.574 186.104 218.739 186.661 218.949C187.223 219.159 187.76 219.446 188.271 219.81C188.788 220.168 189.214 220.628 189.55 221.19C189.885 221.753 190.053 222.443 190.053 223.261C190.053 224.205 189.805 225.057 189.311 225.818C188.822 226.58 188.107 227.185 187.163 227.634C186.226 228.082 185.087 228.307 183.746 228.307C182.496 228.307 181.413 228.105 180.499 227.702C179.589 227.298 178.874 226.736 178.351 226.014C177.834 225.293 177.541 224.455 177.473 223.5H179.655C179.712 224.159 179.933 224.705 180.32 225.136C180.712 225.562 181.206 225.881 181.803 226.091C182.405 226.295 183.053 226.398 183.746 226.398C184.553 226.398 185.277 226.267 185.919 226.006C186.561 225.739 187.07 225.369 187.445 224.898C187.82 224.42 188.007 223.864 188.007 223.227C188.007 222.648 187.845 222.176 187.521 221.812C187.197 221.449 186.771 221.153 186.243 220.926C185.714 220.699 185.143 220.5 184.53 220.33L182.382 219.716C181.018 219.324 179.939 218.764 179.143 218.037C178.348 217.31 177.95 216.358 177.95 215.182C177.95 214.205 178.214 213.352 178.743 212.625C179.277 211.892 179.993 211.324 180.891 210.92C181.794 210.511 182.803 210.307 183.916 210.307C185.041 210.307 186.041 210.509 186.916 210.912C187.791 211.31 188.484 211.855 188.996 212.548C189.513 213.241 189.786 214.028 189.814 214.909H187.768ZM197.373 212.42V210.545H210.464V212.42H204.975V228H202.862V212.42H197.373ZM220.64 210.545V228H218.526V210.545H220.64ZM243.723 216H241.61C241.485 215.392 241.266 214.858 240.953 214.398C240.646 213.938 240.271 213.551 239.828 213.239C239.391 212.92 238.905 212.682 238.371 212.523C237.837 212.364 237.28 212.284 236.7 212.284C235.644 212.284 234.686 212.551 233.828 213.085C232.976 213.619 232.297 214.406 231.791 215.446C231.291 216.486 231.041 217.761 231.041 219.273C231.041 220.784 231.291 222.06 231.791 223.099C232.297 224.139 232.976 224.926 233.828 225.46C234.686 225.994 235.644 226.261 236.7 226.261C237.28 226.261 237.837 226.182 238.371 226.023C238.905 225.864 239.391 225.628 239.828 225.315C240.271 224.997 240.646 224.608 240.953 224.148C241.266 223.682 241.485 223.148 241.61 222.545H243.723C243.564 223.437 243.274 224.236 242.854 224.94C242.433 225.645 241.911 226.244 241.286 226.739C240.661 227.227 239.959 227.599 239.181 227.855C238.408 228.111 237.581 228.239 236.7 228.239C235.212 228.239 233.888 227.875 232.729 227.148C231.57 226.42 230.658 225.386 229.993 224.045C229.328 222.705 228.996 221.114 228.996 219.273C228.996 217.432 229.328 215.841 229.993 214.5C230.658 213.159 231.57 212.125 232.729 211.398C233.888 210.67 235.212 210.307 236.7 210.307C237.581 210.307 238.408 210.435 239.181 210.69C239.959 210.946 240.661 211.321 241.286 211.815C241.911 212.304 242.433 212.901 242.854 213.605C243.274 214.304 243.564 215.102 243.723 216Z" fill="#FE1990" fill-opacity="0.6"/>
</svg>
