<svg width="350" height="350" viewBox="0 0 350 350" fill="none" xmlns="http://www.w3.org/2000/svg">
<path d="M111.307 272H106.598V257.455H111.456C112.881 257.455 114.105 257.746 115.128 258.328C116.151 258.906 116.934 259.737 117.479 260.821C118.028 261.901 118.303 263.196 118.303 264.706C118.303 266.221 118.026 267.523 117.472 268.612C116.922 269.701 116.127 270.539 115.085 271.126C114.044 271.709 112.784 272 111.307 272ZM108.793 270.082H111.186C112.294 270.082 113.215 269.874 113.949 269.457C114.683 269.036 115.232 268.428 115.597 267.632C115.961 266.832 116.143 265.857 116.143 264.706C116.143 263.565 115.961 262.597 115.597 261.801C115.237 261.006 114.699 260.402 113.984 259.99C113.269 259.578 112.382 259.372 111.321 259.372H108.793V270.082ZM134.385 257.455H136.587V267.021C136.587 268.039 136.348 268.941 135.87 269.727C135.391 270.509 134.719 271.124 133.853 271.574C132.986 272.019 131.971 272.241 130.806 272.241C129.646 272.241 128.632 272.019 127.766 271.574C126.9 271.124 126.227 270.509 125.749 269.727C125.271 268.941 125.032 268.039 125.032 267.021V257.455H127.226V266.844C127.226 267.502 127.371 268.087 127.659 268.598C127.953 269.109 128.367 269.512 128.902 269.805C129.437 270.094 130.072 270.239 130.806 270.239C131.544 270.239 132.181 270.094 132.716 269.805C133.256 269.512 133.668 269.109 133.952 268.598C134.241 268.087 134.385 267.502 134.385 266.844V257.455ZM145.006 272H142.677L147.911 257.455H150.447L155.681 272H153.352L149.239 260.097H149.126L145.006 272ZM145.397 266.304H152.954V268.151H145.397V266.304ZM161.782 272V257.455H163.976V270.111H170.567V272H161.782ZM179.265 257.455V272H177.071V257.455H179.265ZM194.395 261.276C194.319 260.603 194.006 260.082 193.457 259.713C192.908 259.339 192.217 259.152 191.383 259.152C190.787 259.152 190.27 259.247 189.835 259.436C189.399 259.621 189.061 259.876 188.819 260.203C188.583 260.525 188.464 260.892 188.464 261.304C188.464 261.65 188.545 261.948 188.706 262.199C188.871 262.45 189.087 262.661 189.352 262.831C189.622 262.997 189.911 263.136 190.218 263.25C190.526 263.359 190.822 263.449 191.106 263.52L192.527 263.889C192.991 264.003 193.467 264.157 193.954 264.351C194.442 264.545 194.894 264.801 195.311 265.118C195.727 265.435 196.064 265.828 196.319 266.297C196.58 266.766 196.71 267.327 196.71 267.98C196.71 268.804 196.497 269.536 196.071 270.175C195.649 270.814 195.036 271.318 194.231 271.688C193.431 272.057 192.463 272.241 191.326 272.241C190.237 272.241 189.295 272.069 188.5 271.723C187.704 271.377 187.082 270.887 186.632 270.253C186.182 269.614 185.933 268.856 185.886 267.98H188.088C188.13 268.506 188.301 268.944 188.599 269.294C188.902 269.64 189.288 269.898 189.757 270.068C190.23 270.234 190.749 270.317 191.312 270.317C191.932 270.317 192.484 270.22 192.967 270.026C193.455 269.827 193.838 269.552 194.118 269.202C194.397 268.847 194.537 268.432 194.537 267.959C194.537 267.528 194.413 267.175 194.167 266.901C193.926 266.626 193.597 266.399 193.18 266.219C192.768 266.039 192.302 265.88 191.781 265.743L190.062 265.274C188.897 264.957 187.974 264.491 187.292 263.875C186.615 263.259 186.277 262.445 186.277 261.432C186.277 260.594 186.504 259.862 186.958 259.237C187.413 258.612 188.029 258.127 188.805 257.781C189.582 257.431 190.458 257.256 191.433 257.256C192.418 257.256 193.287 257.429 194.039 257.774C194.797 258.12 195.394 258.596 195.829 259.202C196.265 259.803 196.492 260.494 196.511 261.276H194.395ZM202.615 259.344V257.455H213.872V259.344H209.334V272H207.146V259.344H202.615ZM222.554 257.455V272H220.36V257.455H222.554ZM241.831 262.185H239.615C239.53 261.711 239.372 261.295 239.14 260.935C238.908 260.575 238.623 260.269 238.287 260.018C237.951 259.768 237.575 259.578 237.158 259.45C236.746 259.322 236.308 259.259 235.844 259.259C235.006 259.259 234.256 259.469 233.593 259.891C232.935 260.312 232.414 260.93 232.03 261.744C231.651 262.559 231.462 263.553 231.462 264.727C231.462 265.911 231.651 266.91 232.03 267.724C232.414 268.539 232.937 269.154 233.6 269.571C234.263 269.988 235.008 270.196 235.837 270.196C236.296 270.196 236.732 270.134 237.144 270.011C237.56 269.884 237.937 269.696 238.273 269.45C238.609 269.204 238.893 268.903 239.125 268.548C239.362 268.188 239.525 267.777 239.615 267.312L241.831 267.32C241.713 268.035 241.483 268.693 241.142 269.294C240.806 269.891 240.373 270.407 239.843 270.842C239.317 271.273 238.716 271.607 238.039 271.844C237.362 272.08 236.623 272.199 235.823 272.199C234.563 272.199 233.441 271.901 232.456 271.304C231.471 270.703 230.695 269.843 230.127 268.726C229.563 267.608 229.282 266.276 229.282 264.727C229.282 263.174 229.566 261.841 230.134 260.729C230.702 259.611 231.479 258.754 232.463 258.158C233.448 257.556 234.568 257.256 235.823 257.256C236.595 257.256 237.314 257.367 237.982 257.589C238.654 257.807 239.258 258.129 239.793 258.555C240.328 258.977 240.771 259.493 241.121 260.104C241.471 260.71 241.708 261.403 241.831 262.185Z" fill="#AF125A"/>
<path d="M229 113L254.981 98L254.981 128L229 143L229 113Z" fill="#F79AD3"/>
<rect width="28.8675" height="30" transform="matrix(0.866025 -0.5 2.20305e-08 1 174 207)" fill="#F79AD3"/>
<rect width="30" height="30" transform="matrix(0.866025 -0.5 2.20305e-08 1 229 177)" fill="#F79AD3"/>
<rect width="30" height="30" transform="matrix(0.866025 -0.5 0.866025 0.5 203 162)" fill="#FE1990"/>
<rect width="30" height="30" transform="matrix(0.866025 0.5 -2.20305e-08 1 203 162)" fill="#AF125A"/>
<rect width="70" height="30" transform="matrix(0.866025 0.5 -2.20305e-08 1 169 78)" fill="#980D50"/>
<rect width="30.0222" height="64.5421" transform="matrix(0.866025 0.5 -2.20305e-08 1 88 94)" fill="#AF125A"/>
<rect width="33.4863" height="31" transform="matrix(0.866025 -0.5 2.20305e-08 1 140 93.7321)" fill="#F79AD3"/>
<rect width="68.5773" height="30" transform="matrix(0.866025 -0.5 0.866025 0.5 88.2128 94.2887)" fill="#FE1990"/>
<rect width="30.0222" height="65.1423" transform="matrix(0.866025 -0.5 2.20305e-08 1 114 109.378)" fill="#F79AD3"/>
<rect width="100.265" height="30" transform="matrix(0.866025 0.5 -0.866025 0.5 168.751 47.8674)" fill="#FE1990"/>
<rect width="68.4971" height="30" transform="matrix(0.866025 0.5 -0.866025 0.5 139.981 159)" fill="#FE1990"/>
<rect width="100" height="29.8645" transform="matrix(0.866025 0.5 -2.20305e-08 1 88 157)" fill="#AF125A"/>
</svg>
