<svg width="309" height="251" viewBox="0 0 309 251" fill="none" xmlns="http://www.w3.org/2000/svg">
<path d="M122.981 58L179.481 26V55L122.5 88.5L122.981 58Z" fill="#F79AD3"/>
<path d="M97 43L153 10.5L179.481 26L122.981 58L97 43Z" fill="#FE1990"/>
<path d="M97 43L122.981 58L122.5 88.5L97 73V43Z" fill="#AF125A"/>
<path d="M212 75L237.981 60V90L212 105V75Z" fill="#F79AD3"/>
<path d="M153 40.5L179.481 26L237.962 60L211.981 75L153 40.5Z" fill="#FE1990"/>
<path d="M153 40.5L211.981 75V105L153 70.5V40.5Z" fill="#AF125A"/>
<path d="M97 73L122.981 58L122.962 149.5L96.9615 164L97 73Z" fill="#F79AD3"/>
<path d="M71 58.5L96.9808 43L122.962 58L96.9808 73.5L71 58.5Z" fill="#FE1990"/>
<path d="M71 58.5L96.9808 73.5L96.9615 164L71 149V58.5Z" fill="#AF125A"/>
<path d="M156.962 169L183 154L182.5 184L156.962 199V169Z" fill="#F79AD3"/>
<path d="M96.9679 134L122.968 119L183 154L156.962 169L96.9679 134Z" fill="#FE1990"/>
<path d="M96.9679 134L156.962 169V199L96.9615 164L96.9679 134Z" fill="#AF125A"/>
<path d="M120 59.787L126.5 56V86.14L120 89.9504V59.787Z" fill="#F79AD3"/>
<path d="M95 132.89L99 135.214V165.16L95 162.805V132.89Z" fill="#AF125A"/>
<path d="M95.5 44L99 42L124.5 57L121 59L95.5 44Z" fill="#FE1990"/>
<path d="M95.5 44L99 42L124.5 57L121 59L95.5 44Z" fill="#FE1990"/>
<path d="M78.5 228H73.1136V210.545H78.7386C80.4318 210.545 81.8807 210.895 83.0852 211.594C84.2898 212.287 85.2131 213.284 85.8551 214.585C86.4972 215.881 86.8182 217.432 86.8182 219.239C86.8182 221.057 86.4943 222.622 85.8466 223.935C85.1989 225.241 84.2557 226.247 83.017 226.952C81.7784 227.651 80.2727 228 78.5 228ZM75.2273 226.125H78.3636C79.8068 226.125 81.0028 225.847 81.9517 225.29C82.9006 224.733 83.608 223.94 84.0739 222.912C84.5398 221.884 84.7727 220.659 84.7727 219.239C84.7727 217.83 84.5426 216.616 84.0824 215.599C83.6222 214.577 82.9347 213.793 82.0199 213.247C81.1051 212.696 79.9659 212.42 78.6023 212.42H75.2273V226.125ZM106.618 210.545H108.732V222.102C108.732 223.295 108.451 224.361 107.888 225.298C107.331 226.23 106.544 226.966 105.527 227.506C104.51 228.04 103.317 228.307 101.948 228.307C100.578 228.307 99.3852 228.04 98.3682 227.506C97.3511 226.966 96.5614 226.23 95.9989 225.298C95.442 224.361 95.1636 223.295 95.1636 222.102V210.545H97.2773V221.932C97.2773 222.784 97.4648 223.543 97.8398 224.207C98.2148 224.866 98.7489 225.386 99.442 225.767C100.141 226.142 100.976 226.33 101.948 226.33C102.919 226.33 103.755 226.142 104.453 225.767C105.152 225.386 105.686 224.866 106.056 224.207C106.431 223.543 106.618 222.784 106.618 221.932V210.545ZM118.469 228H116.253L122.662 210.545H124.844L131.253 228H129.037L123.821 213.307H123.685L118.469 228ZM119.287 221.182H128.219V223.057H119.287V221.182ZM138.771 228V210.545H140.885V226.125H148.999V228H138.771ZM159.185 210.545V228H157.071V210.545H159.185ZM177.768 214.909C177.666 214.045 177.251 213.375 176.524 212.898C175.797 212.42 174.905 212.182 173.848 212.182C173.075 212.182 172.399 212.307 171.82 212.557C171.246 212.807 170.797 213.151 170.473 213.588C170.155 214.026 169.996 214.523 169.996 215.08C169.996 215.545 170.107 215.946 170.328 216.281C170.555 216.611 170.845 216.886 171.197 217.108C171.55 217.324 171.919 217.503 172.305 217.645C172.692 217.781 173.047 217.892 173.371 217.977L175.143 218.455C175.598 218.574 176.104 218.739 176.661 218.949C177.223 219.159 177.76 219.446 178.271 219.81C178.788 220.168 179.214 220.628 179.55 221.19C179.885 221.753 180.053 222.443 180.053 223.261C180.053 224.205 179.805 225.057 179.311 225.818C178.822 226.58 178.107 227.185 177.163 227.634C176.226 228.082 175.087 228.307 173.746 228.307C172.496 228.307 171.413 228.105 170.499 227.702C169.589 227.298 168.874 226.736 168.351 226.014C167.834 225.293 167.541 224.455 167.473 223.5H169.655C169.712 224.159 169.933 224.705 170.32 225.136C170.712 225.562 171.206 225.881 171.803 226.091C172.405 226.295 173.053 226.398 173.746 226.398C174.553 226.398 175.277 226.267 175.919 226.006C176.561 225.739 177.07 225.369 177.445 224.898C177.82 224.42 178.007 223.864 178.007 223.227C178.007 222.648 177.845 222.176 177.521 221.812C177.197 221.449 176.771 221.153 176.243 220.926C175.714 220.699 175.143 220.5 174.53 220.33L172.382 219.716C171.018 219.324 169.939 218.764 169.143 218.037C168.348 217.31 167.95 216.358 167.95 215.182C167.95 214.205 168.214 213.352 168.743 212.625C169.277 211.892 169.993 211.324 170.891 210.92C171.794 210.511 172.803 210.307 173.916 210.307C175.041 210.307 176.041 210.509 176.916 210.912C177.791 211.31 178.484 211.855 178.996 212.548C179.513 213.241 179.786 214.028 179.814 214.909H177.768ZM187.373 212.42V210.545H200.464V212.42H194.975V228H192.862V212.42H187.373ZM210.64 210.545V228H208.526V210.545H210.64ZM233.723 216H231.61C231.485 215.392 231.266 214.858 230.953 214.398C230.646 213.938 230.271 213.551 229.828 213.239C229.391 212.92 228.905 212.682 228.371 212.523C227.837 212.364 227.28 212.284 226.7 212.284C225.644 212.284 224.686 212.551 223.828 213.085C222.976 213.619 222.297 214.406 221.791 215.446C221.291 216.486 221.041 217.761 221.041 219.273C221.041 220.784 221.291 222.06 221.791 223.099C222.297 224.139 222.976 224.926 223.828 225.46C224.686 225.994 225.644 226.261 226.7 226.261C227.28 226.261 227.837 226.182 228.371 226.023C228.905 225.864 229.391 225.628 229.828 225.315C230.271 224.997 230.646 224.608 230.953 224.148C231.266 223.682 231.485 223.148 231.61 222.545H233.723C233.564 223.437 233.274 224.236 232.854 224.94C232.433 225.645 231.911 226.244 231.286 226.739C230.661 227.227 229.959 227.599 229.181 227.855C228.408 228.111 227.581 228.239 226.7 228.239C225.212 228.239 223.888 227.875 222.729 227.148C221.57 226.42 220.658 225.386 219.993 224.045C219.328 222.705 218.996 221.114 218.996 219.273C218.996 217.432 219.328 215.841 219.993 214.5C220.658 213.159 221.57 212.125 222.729 211.398C223.888 210.67 225.212 210.307 226.7 210.307C227.581 210.307 228.408 210.435 229.181 210.69C229.959 210.946 230.661 211.321 231.286 211.815C231.911 212.304 232.433 212.901 232.854 213.605C233.274 214.304 233.564 215.102 233.723 216Z" fill="#FE1990" fill-opacity="0.6"/>
</svg>
