<svg width="168" height="189" viewBox="0 0 168 189" fill="none" xmlns="http://www.w3.org/2000/svg">
<path d="M141 65.1326L166.981 50.1326L166.981 80.1326L141 95.1326L141 65.1326Z" fill="#F79AD3"/>
<rect width="28.8675" height="28.8095" transform="matrix(0.866025 -0.5 2.20305e-08 1 86 160.133)" fill="#F79AD3"/>
<rect width="30" height="30" transform="matrix(0.866025 -0.5 2.20305e-08 1 141 129.133)" fill="#F79AD3"/>
<rect width="30" height="30" transform="matrix(0.866025 -0.5 0.866025 0.5 115 114.133)" fill="#FE1990"/>
<rect width="30" height="30" transform="matrix(0.866025 0.5 -2.20305e-08 1 115 114.133)" fill="#AF125A"/>
<rect width="70" height="30" transform="matrix(0.866025 0.5 -2.20305e-08 1 81 30.1326)" fill="#AF125A"/>
<rect width="30.0222" height="64.5421" transform="matrix(0.866025 0.5 -2.20305e-08 1 0 46.1326)" fill="#AF125A"/>
<rect width="33.4863" height="31" transform="matrix(0.866025 -0.5 2.20305e-08 1 52 45.8646)" fill="#F79AD3"/>
<rect width="68.5773" height="30" transform="matrix(0.866025 -0.5 0.866025 0.5 0.212891 46.4213)" fill="#FE1990"/>
<rect width="30.0222" height="65.1423" transform="matrix(0.866025 -0.5 2.20305e-08 1 26 61.5106)" fill="#F79AD3"/>
<rect width="100.265" height="30" transform="matrix(0.866025 0.5 -0.866025 0.5 80.7512 0)" fill="#FE1990"/>
<rect width="68.4971" height="30" transform="matrix(0.866025 0.5 -0.866025 0.5 51.9808 111.133)" fill="#FE1990"/>
<rect width="100" height="29.8645" transform="matrix(0.866025 0.5 -2.20305e-08 1 0 109.133)" fill="#AF125A"/>
</svg>
